 http://img813.imageshack.us/img813/6820/guyandmadelineonaparkbe.jpg

Country.......: USA
Genre.........: Drama, Musical
Date release..: 23.04.2009 [World]
Director......: Damien Chazelle
Writers.......: Damien Chazelle
Duration......: 83 min.
More..........: http://www.imdb.com/title/tt1337193
Trailer.......: http://www.imdb.com/video/imdb/vi169187609
Trailer.......:

Pilot :
The film is about is often difficult, but always beautiful connection between music and love. It is the story of the young musician from Boston, who drifts from one affair to another. Guy (Jason Palmer) encounters on his way Madeline (Desiree Garcia), a promising but their relationship falls apart when leaves her for another woman. There is a chance that Guy and Madeline again combined.

Cats :
Jason Palmer   	 ...  	Guy
Desiree Garcia 	... 	Madeline
Sandha Khin 	... 	Elena
Karen Adelman 	... 	Karen
Suzanne Bouffard 	... 	Dancer at Summer Shack
Kelly Burk 	... 	Dancer at Summer Shack
Anna Chazelle 	... 	Laura
Bernard Chazelle 	... 	Paul
Gonzalo Digenio 	... 	John
Frank Garvin 	... 	Frank
Eli Gerstenlauer 	... 	Eli
Carolyn Glicklich 	... 	Dancer at Summer Shack
Greg 	Greg 	... 	Greg Duncan
Keith Gross Hill 	... 	Keith
Kevin Harris 	... 	Kevin 

Data Technical :
!!! SAMPLE !!!
Audio.....: English
Subtitles.: None
Format                           : AVI
Format/Info                      : Audio Video Interleave
File size                        : 699 MiB
Duration                         : 1h 22mn
Overall bit rate                 : 1 178 Kbps
Writing application              : VirtualDubMod 1.5.10.2 (build 2540/release)
Writing library                  : VirtualDubMod build 2540/release
Video
ID                               : 0
Format                           : MPEG-4 Visual
Format profile                   : Advanced Simple@L5
Format settings, BVOP            : Yes
Format settings, QPel            : No
Format settings, GMC             : No warppoints
Format settings, Matrix          : Default (H.263)
Codec ID                         : XVID
Codec ID/Hint                    : XviD
Duration                         : 1h 22mn
Bit rate                         : 977 Kbps
Width                            : 528 pixels
Height                           : 384 pixels
Display aspect ratio             : 1.375
Frame rate                       : 23.976 fps
Color space                      : YUV
Chroma subsampling               : 4:2:0
Bit depth                        : 8 bits
Scan type                        : Progressive
Bits/(Pixel*Frame)               : 0.201
Stream size                      : 580 MiB (83%)
Writing library                  : XviD 1.1.2 (UTC 2006-11-01)
Audio
ID                               : 1
Format                           : AC-3
Format/Info                      : Audio Coding 3
Mode extension                   : CM (complete main)
Codec ID                         : 2000
Duration                         : 1h 22mn
Bit rate mode                    : Constant
Bit rate                         : 192 Kbps
Channel(s)                       : 2 channels
Channel positions                : Front: L R
Sampling rate                    : 48.0 KHz
Bit depth                        : 16 bits
Video delay                      : 1s 376ms
Stream size                      : 114 MiB (16%)
Alignment                        : Split accross interleaves
Interleave, duration             : 42 ms (1.00 video frame)
Interleave, preload duration     : 500 ms

Screen : 
http://img59.imageshack.us/img59/6820/guyandmadelineonaparkbe.jpg 
http://img52.imageshack.us/img52/6820/guyandmadelineonaparkbe.jpg 
http://img840.imageshack.us/img840/6820/guyandmadelineonaparkbe.jpg 
http://img84.imageshack.us/img84/6820/guyandmadelineonaparkbe.jpg 
http://img848.imageshack.us/img848/6820/guyandmadelineonaparkbe.jpg